<!DOCTYPE svg PUBLIC "-//W3C//DTD SVG 20010904//EN" "http://www.w3.org/TR/2001/REC-SVG-20010904/DTD/svg10.dtd">
<svg version="1.0" xmlns="http://www.w3.org/2000/svg" width="1600px" height="1600px" viewBox="0 0 16000 16000" preserveAspectRatio="xMidYMid meet">
<g id="layer1" fill="#fffefe" stroke="none">
 <path d="M6858 15220 c-92 -16 -196 -102 -226 -188 -13 -37 -38 -176 -67 -377 -8 -60 -20 -135 -25 -165 -5 -30 -16 -104 -25 -165 -9 -60 -22 -150 -30 -200 -7 -49 -21 -139 -30 -200 -9 -60 -23 -153 -31 -205 -8 -52 -19 -124 -24 -160 -6 -36 -17 -107 -25 -158 -8 -50 -15 -105 -15 -121 0 -46 -27 -65 -165 -115 -71 -26 -148 -54 -170 -63 -22 -8 -58 -22 -80 -31 -22 -8 -67 -27 -100 -43 -33 -15 -89 -41 -125 -57 -133 -61 -183 -82 -197 -82 -17 0 -122 79 -947 710 -393 301 -430 326 -495 346 -108 33 -228 15 -312 -46 -24 -17 -93 -77 -154 -133 -60 -56 -173 -160 -250 -231 -173 -160 -702 -688 -852 -851 -156 -169 -330 -387 -366 -459 -28 -56 -30 -69 -31 -166 0 -98 2 -109 31 -165 17 -33 76 -118 130 -190 100 -131 561 -738 598 -786 11 -15 76 -100 145 -190 69 -90 129 -170 133 -176 5 -7 1 -25 -7 -40 -20 -36 -162 -334 -188 -393 -20 -45 -49 -126 -93 -255 -50 -147 -77 -220 -86 -231 -5 -6 -35 -14 -67 -18 -31 -4 -82 -11 -112 -16 -58 -10 -182 -29 -365 -55 -60 -9 -150 -23 -200 -30 -49 -8 -139 -21 -200 -30 -205 -30 -250 -36 -340 -50 -49 -7 -142 -21 -205 -30 -150 -21 -255 -44 -305 -65 -53 -24 -114 -85 -145 -146 l-25 -49 0 -1165 0 -1165 25 -50 c14 -27 48 -72 75 -100 69 -69 100 -79 365 -115 41 -6 98 -15 125 -20 28 -5 100 -16 160 -25 61 -8 153 -22 205 -30 52 -8 140 -22 195 -30 55 -8 127 -20 160 -25 33 -6 92 -15 130 -20 39 -5 115 -16 170 -25 55 -9 134 -20 175 -26 41 -5 100 -15 130 -22 66 -15 67 -16 145 -237 67 -189 84 -228 249 -569 l26 -54 -38 -51 c-254 -349 -451 -608 -678 -892 -149 -187 -288 -365 -307 -395 -19 -30 -43 -83 -53 -118 -39 -141 20 -256 295 -575 99 -115 476 -511 686 -721 352 -351 639 -588 803 -661 123 -56 250 -18 434 127 96 75 354 276 468 364 77 59 176 137 480 375 85 67 178 139 206 161 l51 39 44 -19 c24 -10 103 -46 174 -80 166 -79 181 -86 235 -106 25 -10 59 -24 77 -31 17 -8 38 -14 46 -14 9 0 19 -4 22 -10 3 -5 13 -10 22 -10 8 0 29 -6 46 -14 18 -7 61 -24 97 -38 78 -29 84 -39 99 -168 6 -52 18 -144 25 -205 8 -60 20 -148 25 -195 6 -47 15 -114 21 -150 5 -36 16 -121 25 -190 30 -237 82 -536 130 -755 9 -38 19 -83 22 -100 12 -58 61 -150 99 -187 22 -20 62 -47 89 -60 l50 -23 1070 -3 c639 -2 1108 1 1165 7 112 11 169 38 228 107 56 66 69 116 117 449 9 61 20 133 25 160 5 28 14 84 20 125 5 41 17 120 25 175 9 55 20 132 25 170 6 39 14 95 19 125 6 30 17 105 26 165 9 61 23 153 31 205 8 52 19 127 25 165 23 147 23 149 49 161 29 14 52 23 260 100 85 31 193 75 240 96 47 22 105 49 130 60 25 11 73 33 108 50 34 16 68 25 75 21 11 -6 237 -177 805 -608 460 -349 579 -436 612 -446 108 -33 228 -19 318 36 61 38 632 576 902 852 366 372 643 691 722 829 32 57 33 63 33 165 0 97 -2 110 -29 165 -17 32 -50 86 -75 118 -26 33 -104 136 -176 231 -147 193 -560 736 -677 889 -43 55 -78 108 -78 117 0 9 13 42 29 75 16 32 43 88 59 124 16 36 46 101 67 145 58 126 62 136 83 200 11 34 25 72 31 85 5 14 29 77 52 140 23 63 47 121 54 128 7 8 55 20 106 27 52 8 108 16 124 19 17 3 80 12 140 21 61 9 148 22 195 30 47 8 135 21 195 30 61 9 148 23 195 30 47 8 135 21 195 30 61 9 124 18 140 21 48 9 214 34 290 44 93 13 161 29 210 51 44 20 119 94 150 149 20 34 20 60 23 1198 l2 1164 -26 59 c-30 66 -115 154 -160 165 -15 4 -39 13 -53 20 -14 8 -38 14 -53 14 -15 0 -98 11 -185 25 -87 13 -207 32 -268 40 -60 9 -144 23 -185 31 -42 8 -90 14 -108 14 -18 0 -61 6 -95 14 -34 8 -98 19 -142 25 -44 6 -154 22 -245 36 -91 13 -183 27 -205 30 -64 9 -229 37 -243 41 -14 4 -15 6 -77 169 -25 66 -52 136 -59 155 -46 119 -60 151 -181 405 l-52 110 36 50 c19 28 121 165 225 305 163 220 275 363 643 825 174 217 209 314 167 455 -19 64 -46 105 -170 260 -130 163 -259 304 -573 628 -509 526 -830 806 -1030 901 -53 25 -153 28 -221 7 -96 -31 -127 -51 -385 -255 -154 -122 -227 -179 -350 -276 -55 -43 -129 -102 -165 -130 -36 -28 -105 -83 -154 -121 -48 -38 -152 -119 -229 -180 l-140 -112 -36 15 c-20 8 -92 42 -161 75 -69 33 -145 69 -170 80 -25 11 -57 26 -72 34 -14 8 -35 14 -46 14 -12 0 -23 4 -27 9 -3 5 -20 13 -37 17 -18 3 -39 11 -48 15 -17 10 -138 55 -186 70 -63 19 -65 25 -104 359 -5 41 -14 104 -19 140 -6 36 -17 121 -26 190 -9 69 -20 154 -26 190 -5 36 -14 101 -19 145 -5 44 -16 121 -25 170 -9 50 -20 119 -25 155 -6 36 -14 83 -19 105 -5 22 -17 78 -27 125 -57 283 -97 362 -213 418 l-56 27 -1125 1 c-619 1 -1146 -2 -1172 -6z m1632 -2844 c309 -40 461 -70 720 -141 108 -30 390 -124 405 -135 6 -4 21 -11 35 -15 23 -7 53 -20 145 -60 152 -68 472 -237 532 -281 17 -13 34 -24 38 -24 12 0 210 -138 345 -240 344 -260 650 -580 934 -975 49 -67 174 -263 189 -295 4 -8 26 -46 48 -85 160 -282 298 -615 389 -940 12 -44 31 -110 41 -147 10 -36 19 -77 19 -91 0 -13 4 -37 10 -53 15 -45 58 -309 66 -408 l7 -89 -924 7 c-823 6 -925 8 -936 22 -21 29 -113 262 -222 567 -252 702 -311 822 -450 916 -56 39 -69 42 -178 57 l-118 16 -102 -57 c-61 -33 -115 -71 -133 -93 -39 -47 -80 -134 -113 -238 -30 -96 -121 -455 -171 -679 -20 -88 -58 -259 -85 -380 -27 -121 -84 -377 -126 -570 -43 -192 -81 -356 -85 -364 -4 -8 -49 114 -110 300 -280 857 -377 1055 -566 1144 -58 28 -92 37 -153 42 -75 5 -83 4 -170 -32 -74 -31 -100 -48 -145 -94 -112 -119 -216 -397 -442 -1193 -21 -76 -41 -134 -45 -130 -3 4 -30 117 -59 252 -132 610 -236 1066 -300 1315 -138 542 -205 671 -391 745 l-79 32 -117 -17 c-112 -16 -119 -18 -175 -61 -130 -101 -185 -207 -474 -927 -161 -399 -224 -549 -236 -564 -8 -10 -193 -13 -863 -13 -468 0 -854 2 -856 4 -22 22 79 585 142 791 5 17 18 62 30 100 81 266 246 647 369 850 16 28 34 59 39 71 10 22 134 217 175 274 384 538 822 949 1359 1274 169 102 497 266 622 311 28 10 55 22 60 25 16 12 301 106 405 135 282 77 465 112 730 140 85 9 162 18 170 20 8 2 164 2 345 1 235 -2 366 -8 455 -20z m-2196 -4276 c59 -267 118 -534 131 -595 62 -281 108 -480 150 -646 125 -501 172 -607 306 -694 86 -57 102 -63 191 -71 65 -6 83 -3 148 20 41 15 89 36 107 47 45 28 108 102 149 175 65 117 173 430 304 884 23 80 57 195 75 255 18 61 43 149 56 197 13 49 26 88 29 88 3 0 29 -75 59 -167 404 -1253 443 -1342 626 -1442 l74 -41 111 0 c102 0 115 2 169 29 77 39 112 70 156 137 83 124 148 334 294 944 16 69 78 341 136 605 58 264 117 529 130 589 13 59 26 110 28 112 2 3 19 -35 37 -83 88 -237 193 -455 264 -549 58 -78 118 -127 203 -167 l68 -31 1060 -9 c583 -5 1062 -11 1064 -13 12 -11 -58 -514 -80 -571 -5 -14 -9 -36 -9 -50 0 -14 -9 -55 -19 -91 -10 -37 -29 -103 -41 -147 -91 -325 -229 -658 -389 -940 -22 -38 -44 -77 -48 -85 -15 -32 -140 -228 -189 -295 -284 -395 -590 -715 -934 -975 -135 -102 -333 -240 -345 -240 -4 0 -21 -11 -38 -24 -60 -44 -380 -213 -532 -281 -16 -7 -51 -22 -77 -34 -26 -12 -51 -21 -55 -21 -5 0 -20 -6 -35 -14 -37 -19 -304 -109 -418 -141 -262 -72 -406 -100 -730 -142 -193 -26 -753 -26 -960 0 -298 36 -458 68 -730 142 -104 29 -389 123 -405 135 -5 3 -32 15 -60 25 -125 45 -453 209 -622 311 -537 325 -975 736 -1359 1274 -41 57 -165 252 -175 274 -5 12 -23 44 -39 71 -123 203 -288 584 -369 850 -12 39 -25 84 -30 100 -15 47 -57 222 -74 305 -37 179 -89 554 -78 565 2 3 435 5 962 5 1091 0 1061 -2 1178 74 81 52 133 120 210 273 45 91 217 494 236 552 4 12 10 19 15 15 4 -5 55 -227 114 -494z"/>
 </g>
<g id="layer2" fill="#f49306" stroke="none">
 <path d="M7530 15948 c-253 -12 -652 -57 -885 -99 -274 -50 -391 -73 -540 -111 -44 -11 -107 -26 -140 -35 -194 -47 -482 -135 -650 -198 -38 -14 -83 -30 -100 -35 -16 -5 -39 -14 -50 -19 -11 -5 -47 -19 -80 -31 -33 -13 -73 -28 -90 -35 -54 -22 -160 -66 -180 -75 -11 -5 -42 -19 -70 -31 -94 -40 -200 -90 -225 -105 -14 -8 -43 -22 -65 -31 -59 -25 -245 -123 -380 -200 -22 -13 -53 -30 -70 -38 -16 -9 -48 -27 -70 -40 -22 -14 -47 -28 -55 -32 -8 -4 -36 -22 -62 -40 -26 -18 -50 -33 -53 -33 -3 0 -52 -30 -108 -67 -56 -38 -106 -70 -112 -72 -12 -5 -101 -67 -267 -188 -89 -63 -388 -297 -447 -349 -83 -72 -230 -201 -271 -238 -54 -49 -416 -412 -481 -482 -90 -98 -288 -332 -387 -459 -56 -71 -109 -137 -117 -146 -8 -9 -15 -19 -15 -22 0 -4 -28 -44 -63 -90 -63 -83 -297 -430 -297 -441 0 -4 -15 -28 -32 -54 -18 -26 -44 -67 -57 -92 -13 -25 -29 -51 -35 -59 -13 -17 -33 -52 -41 -71 -4 -8 -11 -22 -16 -30 -5 -8 -16 -28 -25 -45 -8 -16 -33 -61 -54 -100 -22 -38 -76 -144 -121 -235 -44 -91 -87 -176 -94 -190 -7 -14 -38 -86 -70 -160 -31 -74 -66 -152 -76 -173 -10 -22 -19 -43 -19 -49 0 -5 -6 -24 -14 -41 -7 -18 -24 -59 -36 -92 -12 -33 -26 -71 -32 -85 -6 -14 -23 -63 -38 -110 -16 -47 -35 -103 -43 -125 -17 -47 -77 -241 -102 -335 -10 -36 -26 -94 -36 -130 -43 -156 -107 -449 -142 -655 -82 -478 -102 -750 -102 -1375 0 -625 20 -897 102 -1375 35 -206 99 -499 142 -655 10 -36 26 -94 36 -130 9 -36 23 -83 30 -105 7 -22 23 -74 35 -115 12 -41 29 -93 37 -115 8 -22 27 -78 43 -125 15 -47 32 -96 38 -110 6 -14 20 -52 32 -85 12 -33 29 -74 36 -92 8 -17 14 -36 14 -41 0 -6 9 -27 19 -49 10 -21 45 -99 76 -173 32 -74 63 -146 70 -160 7 -14 50 -99 94 -190 45 -91 99 -196 121 -235 21 -38 46 -83 54 -100 9 -16 20 -37 25 -45 5 -8 12 -22 16 -30 8 -19 28 -54 41 -71 6 -8 22 -34 35 -59 13 -25 39 -66 57 -92 17 -26 32 -50 32 -53 0 -11 236 -362 297 -442 35 -46 63 -86 63 -89 0 -3 9 -16 20 -28 10 -11 57 -70 104 -131 82 -107 304 -370 396 -470 63 -69 382 -388 460 -461 56 -52 149 -134 291 -258 59 -52 358 -286 447 -349 166 -121 255 -183 267 -188 6 -2 56 -34 112 -72 56 -37 105 -67 108 -67 3 0 27 -15 53 -33 26 -18 54 -36 62 -40 8 -4 33 -18 55 -32 22 -13 54 -31 70 -40 17 -8 48 -25 70 -38 140 -80 367 -199 401 -210 10 -3 30 -13 44 -21 25 -15 128 -63 225 -105 28 -12 59 -26 70 -31 20 -9 126 -53 180 -75 17 -7 57 -22 90 -35 33 -12 69 -26 80 -31 11 -5 34 -14 50 -19 17 -5 62 -21 100 -35 168 -63 456 -151 650 -198 33 -9 96 -24 140 -35 207 -52 549 -117 765 -146 384 -51 753 -76 1130 -76 590 0 1138 58 1720 182 112 24 290 67 445 109 85 22 145 40 235 69 30 10 91 30 135 43 44 14 112 38 150 52 39 14 86 31 105 36 19 6 39 15 44 20 6 5 16 9 23 9 8 0 33 9 55 20 23 11 46 20 51 20 5 0 23 6 40 14 18 7 61 26 97 41 99 41 132 55 165 70 17 8 66 30 110 50 44 20 91 42 105 51 14 8 43 22 64 31 64 27 247 123 386 203 36 20 86 49 111 62 75 42 91 51 141 85 26 18 50 33 53 33 3 0 28 16 55 35 27 19 52 35 55 35 3 0 27 15 53 33 26 17 55 37 63 42 167 107 521 373 687 514 236 201 318 277 552 512 233 234 324 334 508 563 41 50 84 102 96 116 30 34 220 289 275 370 126 183 221 332 305 475 35 61 74 126 85 145 12 19 28 49 37 65 8 17 33 62 55 100 21 39 73 140 115 225 42 85 84 171 93 190 30 59 164 376 191 450 7 19 18 49 25 65 19 44 49 129 110 315 88 265 106 326 185 638 68 268 139 678 174 1007 29 271 40 912 23 1375 -14 379 -62 738 -163 1215 -28 132 -97 397 -145 555 -46 155 -158 486 -184 545 -7 17 -18 46 -25 65 -27 74 -161 391 -191 450 -9 19 -51 105 -93 190 -42 85 -94 187 -115 225 -22 39 -47 84 -55 100 -9 17 -25 46 -37 65 -11 19 -50 85 -85 145 -84 143 -179 292 -305 475 -55 81 -245 336 -275 370 -12 14 -55 66 -96 116 -184 229 -275 329 -508 563 -234 235 -316 311 -552 512 -166 141 -520 407 -687 514 -8 6 -37 25 -63 43 -26 17 -50 32 -53 32 -3 0 -28 16 -55 35 -27 19 -52 35 -55 35 -3 0 -27 15 -53 33 -50 34 -66 43 -141 85 -25 13 -75 42 -111 62 -139 80 -322 176 -386 203 -21 9 -50 23 -64 31 -14 9 -61 31 -105 51 -44 20 -93 42 -110 50 -33 15 -66 29 -165 70 -36 15 -79 34 -97 41 -17 8 -35 14 -40 14 -5 0 -28 9 -51 20 -22 11 -47 20 -55 20 -7 0 -17 4 -23 9 -5 5 -25 14 -44 20 -19 5 -66 22 -105 36 -38 14 -106 38 -150 52 -44 13 -105 33 -135 43 -177 57 -442 127 -680 178 -294 65 -514 99 -895 141 -351 39 -874 51 -1295 29z m1661 -770 c116 -56 156 -135 213 -418 10 -47 22 -103 27 -125 5 -22 13 -69 19 -105 5 -36 16 -105 25 -155 9 -49 20 -126 25 -170 5 -44 14 -109 19 -145 6 -36 17 -121 26 -190 9 -69 20 -154 26 -190 5 -36 14 -99 19 -140 39 -334 41 -340 104 -359 48 -15 169 -60 186 -70 9 -4 30 -12 48 -15 17 -4 34 -12 37 -17 4 -5 15 -9 27 -9 11 0 32 -6 46 -14 15 -8 47 -23 72 -34 25 -11 101 -47 170 -80 154 -74 198 -92 219 -92 9 0 80 51 157 113 78 61 182 143 230 181 49 38 118 93 154 121 68 54 323 256 425 336 336 265 380 296 475 325 104 32 159 17 320 -92 207 -138 473 -383 923 -849 307 -318 414 -435 553 -610 115 -144 141 -185 160 -253 32 -114 -5 -202 -169 -407 -360 -451 -488 -615 -681 -876 -124 -167 -226 -312 -226 -321 0 -9 27 -74 61 -145 33 -70 75 -159 93 -198 37 -79 44 -97 141 -350 62 -163 63 -165 77 -169 14 -4 179 -32 243 -41 22 -3 114 -17 205 -30 91 -14 201 -30 245 -36 44 -6 108 -17 142 -25 34 -8 77 -14 95 -14 18 0 66 -6 108 -14 41 -8 125 -22 185 -31 61 -8 181 -27 268 -40 87 -14 170 -25 185 -25 15 0 39 -6 53 -14 14 -7 38 -16 53 -20 45 -11 130 -99 160 -165 l26 -59 -2 -1144 -3 -1143 -24 -43 c-29 -54 -98 -119 -148 -142 -47 -21 -116 -37 -208 -50 -76 -10 -242 -35 -290 -44 -16 -3 -79 -12 -140 -21 -60 -9 -148 -22 -195 -30 -47 -7 -134 -21 -195 -30 -60 -9 -148 -22 -195 -30 -47 -8 -134 -21 -195 -30 -60 -9 -123 -18 -140 -21 -16 -3 -72 -11 -124 -19 -51 -7 -99 -19 -106 -27 -7 -7 -31 -65 -54 -128 -23 -63 -47 -126 -52 -140 -6 -13 -20 -51 -31 -85 -21 -64 -25 -74 -83 -200 -21 -44 -51 -109 -67 -145 -16 -36 -43 -91 -58 -123 -16 -31 -31 -70 -35 -86 -7 -32 -24 -7 391 -552 128 -167 276 -362 331 -434 54 -71 135 -177 179 -235 117 -153 139 -202 139 -309 0 -79 -3 -91 -33 -145 -88 -155 -480 -595 -878 -986 -398 -391 -683 -656 -749 -697 -72 -45 -155 -60 -235 -43 -56 12 -81 27 -218 128 -86 62 -178 132 -206 154 -28 22 -132 101 -232 176 -99 75 -321 244 -494 375 -206 156 -321 237 -337 237 -13 0 -52 -13 -86 -29 -34 -16 -82 -38 -107 -49 -25 -11 -83 -38 -130 -60 -47 -21 -155 -65 -240 -96 -208 -77 -231 -86 -260 -100 -26 -12 -26 -14 -49 -161 -6 -38 -17 -113 -25 -165 -8 -52 -22 -144 -31 -205 -9 -60 -20 -135 -26 -165 -5 -30 -13 -86 -19 -125 -5 -38 -16 -115 -25 -170 -8 -55 -20 -134 -25 -175 -6 -41 -15 -97 -20 -125 -5 -27 -16 -99 -25 -160 -48 -333 -61 -383 -117 -449 -59 -69 -116 -96 -228 -107 -57 -6 -518 -9 -1145 -7 l-1050 3 -59 27 c-32 16 -72 43 -88 60 -32 35 -81 134 -91 183 -3 17 -13 62 -22 100 -48 219 -100 518 -130 755 -9 69 -20 154 -25 190 -6 36 -15 103 -21 150 -5 47 -17 135 -25 195 -7 61 -19 153 -25 205 -15 129 -21 139 -99 168 -36 14 -79 31 -97 38 -17 8 -38 14 -46 14 -9 0 -19 5 -22 10 -3 5 -13 10 -22 10 -8 0 -29 6 -46 14 -18 7 -52 21 -77 31 -54 20 -69 27 -235 106 -179 85 -213 99 -238 99 -12 0 -49 -22 -82 -48 -33 -27 -121 -95 -195 -153 -74 -57 -169 -131 -211 -164 -42 -33 -116 -91 -165 -129 -49 -38 -118 -93 -154 -121 -36 -28 -126 -98 -200 -155 -74 -57 -172 -134 -218 -169 -128 -101 -230 -151 -309 -151 -45 0 -121 36 -233 110 -201 133 -500 409 -933 860 -513 535 -667 726 -707 877 -14 54 8 135 57 212 19 30 150 198 291 374 305 380 731 953 732 983 0 11 -12 45 -26 75 -165 341 -182 380 -249 569 -78 221 -79 222 -145 237 -30 7 -89 17 -130 22 -41 6 -120 17 -175 26 -55 9 -131 20 -170 25 -38 5 -97 14 -130 20 -33 5 -105 17 -160 25 -55 8 -143 22 -195 30 -52 8 -144 22 -205 30 -60 9 -132 20 -160 25 -27 5 -84 14 -125 20 -265 36 -296 46 -365 115 -27 28 -61 73 -75 100 l-25 50 0 1145 0 1145 25 49 c31 61 92 122 145 146 50 21 155 44 305 65 63 9 156 23 205 30 90 14 135 20 340 50 61 9 151 22 200 30 50 7 140 21 200 30 183 26 307 45 365 55 30 5 81 12 112 16 32 4 62 12 67 18 9 11 36 84 86 231 44 129 73 210 93 255 25 58 168 357 187 392 28 49 19 68 -108 235 -67 88 -165 216 -216 284 -145 189 -434 569 -544 714 -54 72 -113 157 -129 190 -28 53 -31 69 -31 146 1 74 4 93 31 146 33 67 194 271 341 433 275 302 1136 1136 1279 1240 81 58 182 74 278 45 60 -19 102 -49 490 -345 819 -627 943 -720 960 -720 16 0 94 32 212 86 172 80 199 92 237 106 22 9 58 23 80 31 22 9 99 37 170 63 138 50 165 69 165 115 0 16 7 71 15 121 8 51 19 122 25 158 5 36 16 108 24 160 8 52 22 145 31 205 9 61 23 151 30 200 8 50 21 140 30 200 9 61 20 135 25 165 5 30 17 105 25 165 29 201 54 340 67 377 30 86 134 172 226 188 26 4 544 7 1152 6 l1105 -1 56 -27z"/>
 <path d="M7670 12415 c-8 -2 -85 -11 -170 -20 -265 -28 -448 -63 -730 -140 -104 -29 -389 -123 -405 -135 -5 -3 -32 -15 -60 -25 -125 -45 -453 -209 -622 -311 -475 -287 -906 -673 -1238 -1109 -77 -100 -279 -399 -295 -436 -6 -13 -24 -46 -40 -74 -123 -203 -288 -584 -369 -850 -12 -38 -25 -83 -30 -100 -66 -215 -167 -791 -145 -826 3 -5 359 -9 878 -9 687 0 876 3 884 13 12 15 75 165 236 564 180 448 221 545 287 674 72 141 111 194 187 253 54 41 65 45 160 59 l102 15 75 -30 c180 -73 249 -206 385 -743 33 -126 80 -322 105 -435 80 -356 142 -637 201 -905 53 -240 68 -286 85 -267 4 4 28 81 54 172 231 810 328 1072 441 1191 45 46 71 63 145 94 83 34 96 37 152 31 36 -5 89 -21 133 -42 187 -89 285 -288 569 -1157 59 -180 110 -329 114 -331 4 -3 12 -2 17 2 6 4 48 176 93 382 46 206 105 474 132 595 27 121 65 292 85 380 50 224 141 583 171 679 33 104 74 191 113 238 18 22 71 59 130 92 l99 54 101 -14 c90 -13 108 -18 161 -55 139 -94 198 -214 450 -916 109 -305 200 -538 222 -567 11 -14 113 -16 953 -22 630 -5 943 -4 947 3 12 19 -51 470 -74 530 -5 14 -9 36 -9 50 0 14 -9 55 -19 91 -10 37 -29 103 -41 147 -91 325 -229 658 -389 940 -22 39 -44 77 -48 85 -15 33 -114 184 -217 335 -165 240 -480 583 -725 790 -159 134 -502 385 -526 385 -4 0 -21 11 -38 24 -60 44 -380 213 -532 281 -92 40 -122 53 -145 60 -14 4 -29 11 -35 15 -5 4 -77 30 -160 58 -265 89 -502 149 -740 186 -277 44 -349 49 -700 52 -192 1 -357 1 -365 -1z"/>
 <path d="M6151 8608 c-10 -24 -58 -137 -105 -251 -162 -391 -233 -509 -347 -583 -117 -76 -87 -74 -1179 -74 -599 0 -961 -4 -965 -10 -11 -18 42 -409 82 -600 17 -83 59 -258 74 -305 5 -16 18 -61 30 -100 81 -266 246 -647 369 -850 16 -27 34 -61 40 -74 16 -37 218 -336 295 -436 332 -436 763 -822 1238 -1109 169 -102 497 -266 622 -311 28 -10 55 -22 60 -25 16 -12 301 -106 405 -135 272 -74 432 -106 730 -142 208 -26 806 -26 1000 0 324 42 468 70 730 142 114 32 381 122 418 141 15 8 30 14 35 14 4 0 29 9 55 21 26 12 61 27 77 34 152 68 472 237 532 281 17 13 34 24 38 24 24 0 367 251 526 385 245 207 560 550 725 790 103 151 202 302 217 335 4 8 26 47 48 85 160 282 298 615 389 940 12 44 31 110 41 147 10 36 19 77 19 91 0 14 4 37 9 50 24 63 97 596 83 608 -4 4 -484 11 -1067 16 l-1060 9 -68 31 c-85 40 -145 89 -203 167 -73 96 -170 298 -261 541 -24 66 -48 124 -52 128 -15 15 -28 -19 -54 -138 -378 -1749 -478 -2103 -629 -2230 -17 -15 -57 -39 -89 -56 -52 -26 -69 -29 -149 -29 -88 0 -94 2 -165 41 -183 100 -216 177 -605 1377 -45 138 -86 255 -92 258 -18 11 -27 -10 -72 -166 -24 -85 -60 -210 -80 -277 -20 -68 -52 -178 -71 -245 -103 -356 -208 -653 -270 -763 -40 -72 -103 -146 -148 -174 -18 -11 -65 -32 -105 -46 -61 -22 -82 -25 -130 -19 -74 9 -89 15 -171 69 -134 87 -181 193 -306 694 -42 167 -88 367 -150 646 -159 721 -246 1109 -251 1116 -11 19 -26 8 -43 -33z"/>
 </g>

</svg>